<svg xmlns="http://www.w3.org/2000/svg" xmlns:xlink="http://www.w3.org/1999/xlink" id="screenshot" width="206.957" height="158.157" version="1.1" viewBox="-1.957 -2.799 206.957 158.157" style="-webkit-print-color-adjust:exact"><g id="shape-575c9093-25c2-11ec-9877-05429cda5971"><g id="shape-575c9094-25c2-11ec-9877-05429cda5971"><defs><mask id="outer-stroke-ddd0b3b0-3bbe-11ec-880d-a73a7db30a35" width="206.957" height="158.157" x="-1.957" y="-2.799" maskUnits="userSpaceOnUse"><use xlink:href="#stroke-shape-ddd0b3b0-3bbe-11ec-880d-a73a7db30a35" style="fill:none;stroke:#fff;stroke-width:4"/><use xlink:href="#stroke-shape-ddd0b3b0-3bbe-11ec-880d-a73a7db30a35" style="fill:#000"/></mask></defs><g class="outer-stroke-shape"><defs><rect id="stroke-shape-ddd0b3b0-3bbe-11ec-880d-a73a7db30a35" width="201" height="152" x="1" y="0" data-style="fill:none;stroke-width:2;stroke:#E3E3E3;stroke-opacity:1;stroke-dasharray:" rx="3" ry="3" transform="matrix(0.9999999978661108,-1.745329248269963e-8,1.7453292541199837e-7,1.0000000006480119,-0.000013047912574393195,0.0000017222602934907627)"/></defs><use mask="url(#outer-stroke-ddd0b3b0-3bbe-11ec-880d-a73a7db30a35)" xlink:href="#stroke-shape-ddd0b3b0-3bbe-11ec-880d-a73a7db30a35" style="stroke-width:4;stroke:#e3e3e3;stroke-opacity:1;fill:none"/><use xlink:href="#stroke-shape-ddd0b3b0-3bbe-11ec-880d-a73a7db30a35" style="fill:none"/></g></g><g id="shape-575c9095-25c2-11ec-9877-05429cda5971"><path width="202" height="62" x="0" y="91" d="M0,91 h202 a0,0 0 0 1 0,0 v59 a3,3 0 0 1 -3,3 h-196 a3,3 0 0 1 -3,-3 v-59 a0,0 0 0 1 0,0 z" transform="matrix(1.0000000024760176,-1.0471975568525078e-7,3.490658523073093e-8,1.0000000103484785,-0.000004508681172410434,0.000009314180957176177)" style="fill:none;stroke-width:2;stroke:#e3e3e3;stroke-opacity:1"/></g><g id="shape-575c9096-25c2-11ec-9877-05429cda5971"><rect width="134" height="18" x="10" y="103" rx="3" ry="3" transform="matrix(0.9999999995870766,-4.810081334728633e-16,-4.810081268554315e-16,1.000000030940994,3.1795153176972235e-8,-0.0000034653912877047333)" style="fill:#e3e3e3;fill-opacity:1"/></g><g id="shape-575c9097-25c2-11ec-9877-05429cda5971"><rect width="183" height="11" x="10" y="131" rx="3" ry="3" transform="matrix(1.0000000022017677,6.948317137937551e-23,6.617444834426139e-23,1.0000000667740845,-2.234794180822064e-7,-0.000009114662532283546)" style="fill:#e3e3e3;fill-opacity:1"/></g></g></svg>